<mxfile host="app.diagrams.net" agent="Mozilla/5.0 (X11; Linux x86_64; rv:134.0) Gecko/20100101 Firefox/134.0" version="26.0.10">
  <diagram name="Page-1" id="t3f4vq7J9xE0F24Xjz9V">
    <mxGraphModel dx="678" dy="426" grid="1" gridSize="10" guides="1" tooltips="1" connect="1" arrows="1" fold="1" page="1" pageScale="1" pageWidth="1169" pageHeight="827" math="0" shadow="0">
      <root>
        <mxCell id="0" />
        <mxCell id="1" parent="0" />
        <mxCell id="Zu1WbOFwV2hiM9HSU3Zj-2" style="rounded=0;orthogonalLoop=1;jettySize=auto;html=1;endArrow=none;startFill=0;dashed=1;exitX=1;exitY=0.5;exitDx=0;exitDy=0;" edge="1" parent="1" source="Zu1WbOFwV2hiM9HSU3Zj-6" target="Zu1WbOFwV2hiM9HSU3Zj-3">
          <mxGeometry relative="1" as="geometry">
            <mxPoint x="601" y="249.85074626865674" as="sourcePoint" />
          </mxGeometry>
        </mxCell>
        <mxCell id="Zu1WbOFwV2hiM9HSU3Zj-3" value="Internet" style="verticalLabelPosition=bottom;sketch=0;aspect=fixed;html=1;verticalAlign=top;strokeColor=none;align=center;outlineConnect=0;shape=mxgraph.citrix.cloud;" vertex="1" parent="1">
          <mxGeometry x="687" y="168" width="95" height="62" as="geometry" />
        </mxCell>
        <mxCell id="Zu1WbOFwV2hiM9HSU3Zj-4" value="" style="edgeStyle=orthogonalEdgeStyle;rounded=0;orthogonalLoop=1;jettySize=auto;html=1;endArrow=none;startFill=0;" edge="1" parent="1" source="Zu1WbOFwV2hiM9HSU3Zj-5" target="Zu1WbOFwV2hiM9HSU3Zj-6">
          <mxGeometry relative="1" as="geometry" />
        </mxCell>
        <mxCell id="Zu1WbOFwV2hiM9HSU3Zj-5" value="&lt;font face=&quot;Comic Sans MS&quot;&gt;StaticGuard&lt;/font&gt;" style="rounded=1;whiteSpace=wrap;html=1;fillColor=#fff2cc;strokeColor=#d6b656;" vertex="1" parent="1">
          <mxGeometry x="320" y="168" width="120" height="60" as="geometry" />
        </mxCell>
        <mxCell id="Zu1WbOFwV2hiM9HSU3Zj-6" value="&lt;font face=&quot;Comic Sans MS&quot;&gt;StaticBridge&lt;/font&gt;" style="rounded=1;whiteSpace=wrap;html=1;fillColor=#ffe6cc;strokeColor=#d79b00;" vertex="1" parent="1">
          <mxGeometry x="481" y="168" width="120" height="60" as="geometry" />
        </mxCell>
        <mxCell id="Zu1WbOFwV2hiM9HSU3Zj-12" value="&lt;span style=&quot;color: rgb(77, 77, 77);&quot;&gt;Single board&lt;font style=&quot;font-size: 10px;&quot;&gt;&lt;br&gt;&lt;/font&gt;&lt;/span&gt;" style="swimlane;whiteSpace=wrap;html=1;opacity=50;" vertex="1" parent="1">
          <mxGeometry x="310" y="110" width="310" height="150" as="geometry" />
        </mxCell>
      </root>
    </mxGraphModel>
  </diagram>
</mxfile>
